<svg width="800" height="600" xmlns="http://www.w3.org/2000/svg">

 <g>
  <title>Layer 1</title>
  <g>

   <g id="svg_1">
    <metadata id="svg_3"/>
    <g>
     <path fill-rule="nonzero" fill="none" stroke-miterlimit="2.61313" stroke-linejoin="round" stroke-linecap="round" stroke-width="40.27" stroke="black" d="m107.53482,125.93492c0,-1.31 1.06,-2.36 2.36,-2.36l113.68,0l0,-113.68c0,-1.3 1.06,-2.36 2.36,-2.36l464.17,0c1.31,0 2.36,1.06 2.36,2.36l0,464.17c0,1.31 -1.06,2.36 -2.36,2.36l-113.68,0l0,113.68c0,1.3 -1.06,2.36 -2.36,2.36l-464.17,0c-1.3,0 -2.36,-1.06 -2.36,-2.36l0,-464.17zm4.72,2.36l0,459.44l459.44,0l0,-111.32l-345.76,0c-1.3,0 -2.36,-1.06 -2.36,-2.36l0,-232.08c0,-1.3 1.06,-2.36 2.36,-2.36l345.76,0l0,-111.31l-459.44,0l0,-0.01zm575.48,-116.04l-459.44,0l0,111.32l345.76,0c1.3,0 2.36,1.06 2.36,2.36l0,232.08c0,1.3 -1.06,2.36 -2.36,2.36l-345.76,0l0,111.31l459.44,0l0,-459.44l0,0.01zm-116.04,232.08l-343.4,0l0,111.32l343.4,0l0,-111.32z" class="fil0 str0"/>
     <path fill-rule="nonzero" fill="black" d="m107.53482,125.93492c0,-1.31 1.06,-2.36 2.36,-2.36l113.68,0l0,-113.68c0,-1.3 1.06,-2.36 2.36,-2.36l464.17,0c1.31,0 2.36,1.06 2.36,2.36l0,464.17c0,1.31 -1.06,2.36 -2.36,2.36l-113.68,0l0,113.68c0,1.3 -1.06,2.36 -2.36,2.36l-464.17,0c-1.3,0 -2.36,-1.06 -2.36,-2.36l0,-464.17zm4.72,2.36l0,459.44l459.44,0l0,-111.32l-345.76,0c-1.3,0 -2.36,-1.06 -2.36,-2.36l0,-232.08c0,-1.3 1.06,-2.36 2.36,-2.36l345.76,0l0,-111.31l-459.44,0l0,-0.01zm575.48,-116.04l-459.44,0l0,111.32l345.76,0c1.3,0 2.36,1.06 2.36,2.36l0,232.08c0,1.3 -1.06,2.36 -2.36,2.36l-345.76,0l0,111.31l459.44,0l0,-459.44l0,0.01zm-116.04,232.08l-343.4,0l0,111.32l343.4,0l0,-111.32z" class="fil1" id="svg_2"/>
    </g>
   </g>
  </g>
 </g>
</svg>